<?xml version="1.0" encoding="utf-8" ?>
<svg xmlns="http://www.w3.org/2000/svg" xmlns:xlink="http://www.w3.org/1999/xlink" width="320" height="256">
	<path fill="#E8F5E9" d="M0 0L32 0L32 32L0 32L0 0Z" fill-rule="evenodd"/>
	<path fill="#E8F5E9" transform="translate(32 0)" d="M0 0L32 0L32 32L0 32L0 0Z" fill-rule="evenodd"/>
	<path fill="#E8F5E9" transform="translate(64 0)" d="M0 0L32 0L32 32L0 32L0 0Z" fill-rule="evenodd"/>
	<path fill="#E8F5E9" transform="translate(96 0)" d="M0 0L32 0L32 32L0 32L0 0Z" fill-rule="evenodd"/>
	<path fill="#E8F5E9" transform="translate(128 0)" d="M0 0L32 0L32 32L0 32L0 0Z" fill-rule="evenodd"/>
	<path fill="#E8F5E9" transform="translate(160 0)" d="M0 0L32 0L32 32L0 32L0 0Z" fill-rule="evenodd"/>
	<path fill="#E8F5E9" transform="translate(192 0)" d="M0 0L32 0L32 32L0 32L0 0Z" fill-rule="evenodd"/>
	<path fill="#E8F5E9" transform="translate(224 0)" d="M0 0L32 0L32 32L0 32L0 0Z" fill-rule="evenodd"/>
	<path fill="#E8F5E9" transform="translate(256 0)" d="M0 0L32 0L32 32L0 32L0 0Z" fill-rule="evenodd"/>
	<path fill="#E8F5E9" transform="translate(288 0)" d="M0 0L32 0L32 32L0 32L0 0Z" fill-rule="evenodd"/>
	<path fill="#E8F5E9" transform="translate(0 32)" d="M0 0L32 0L32 32L0 32L0 0Z" fill-rule="evenodd"/>
	<path fill="#E8F5E9" transform="translate(32 32)" d="M0 0L32 0L32 32L0 32L0 0Z" fill-rule="evenodd"/>
	<path fill="#E8F5E9" transform="translate(64 32)" d="M0 0L32 0L32 32L0 32L0 0Z" fill-rule="evenodd"/>
	<path fill="#E8F5E9" transform="translate(96 32)" d="M0 0L32 0L32 32L0 32L0 0Z" fill-rule="evenodd"/>
	<path fill="#E8F5E9" transform="translate(128 32)" d="M0 0L32 0L32 32L0 32L0 0Z" fill-rule="evenodd"/>
	<path fill="#E8F5E9" transform="translate(160 32)" d="M0 0L32 0L32 32L0 32L0 0Z" fill-rule="evenodd"/>
	<path fill="#E8F5E9" transform="translate(192 32)" d="M0 0L32 0L32 32L0 32L0 0Z" fill-rule="evenodd"/>
	<path fill="#E8F5E9" transform="translate(224 32)" d="M0 0L32 0L32 32L0 32L0 0Z" fill-rule="evenodd"/>
	<path fill="#E8F5E9" transform="translate(256 32)" d="M0 0L32 0L32 32L0 32L0 0Z" fill-rule="evenodd"/>
	<path fill="#E8F5E9" transform="translate(288 32)" d="M0 0L32 0L32 32L0 32L0 0Z" fill-rule="evenodd"/>
	<path fill="#E8F5E9" transform="translate(0 64)" d="M0 0L32 0L32 32L0 32L0 0Z" fill-rule="evenodd"/>
	<path fill="#E8F5E9" transform="translate(32 64)" d="M0 0L32 0L32 32L0 32L0 0Z" fill-rule="evenodd"/>
	<path fill="#E8F5E9" transform="translate(64 64)" d="M0 0L32 0L32 32L0 32L0 0Z" fill-rule="evenodd"/>
	<path fill="#E8F5E9" transform="translate(96 64)" d="M0 0L32 0L32 32L0 32L0 0Z" fill-rule="evenodd"/>
	<path fill="#E8F5E9" transform="translate(128 64)" d="M0 0L32 0L32 32L0 32L0 0Z" fill-rule="evenodd"/>
	<path fill="#E8F5E9" transform="translate(160 64)" d="M0 0L32 0L32 32L0 32L0 0Z" fill-rule="evenodd"/>
	<path fill="#E8F5E9" transform="translate(192 64)" d="M0 0L32 0L32 32L0 32L0 0Z" fill-rule="evenodd"/>
	<path fill="#E8F5E9" transform="translate(224 64)" d="M0 0L32 0L32 32L0 32L0 0Z" fill-rule="evenodd"/>
	<path fill="#E8F5E9" transform="translate(256 64)" d="M0 0L32 0L32 32L0 32L0 0Z" fill-rule="evenodd"/>
	<path fill="#E8F5E9" transform="translate(288 64)" d="M0 0L32 0L32 32L0 32L0 0Z" fill-rule="evenodd"/>
	<path fill="#E8F5E9" transform="translate(0 96)" d="M0 0L32 0L32 32L0 32L0 0Z" fill-rule="evenodd"/>
	<path fill="#E8F5E9" transform="translate(32 96)" d="M0 0L32 0L32 32L0 32L0 0Z" fill-rule="evenodd"/>
	<path fill="#E8F5E9" transform="translate(64 96)" d="M0 0L32 0L32 32L0 32L0 0Z" fill-rule="evenodd"/>
	<path fill="#E8F5E9" transform="translate(96 96)" d="M0 0L32 0L32 32L0 32L0 0Z" fill-rule="evenodd"/>
	<path fill="#E8F5E9" transform="translate(128 96)" d="M0 0L32 0L32 32L0 32L0 0Z" fill-rule="evenodd"/>
	<path fill="#E8F5E9" transform="translate(160 96)" d="M0 0L32 0L32 32L0 32L0 0Z" fill-rule="evenodd"/>
	<path fill="#E8F5E9" transform="translate(192 96)" d="M0 0L32 0L32 32L0 32L0 0Z" fill-rule="evenodd"/>
	<path fill="#E8F5E9" transform="translate(224 96)" d="M0 0L32 0L32 32L0 32L0 0Z" fill-rule="evenodd"/>
	<path fill="#E8F5E9" transform="translate(256 96)" d="M0 0L32 0L32 32L0 32L0 0Z" fill-rule="evenodd"/>
	<path fill="#E8F5E9" transform="translate(288 96)" d="M0 0L32 0L32 32L0 32L0 0Z" fill-rule="evenodd"/>
	<path fill="#E8F5E9" transform="translate(0 128)" d="M0 0L32 0L32 32L0 32L0 0Z" fill-rule="evenodd"/>
	<path fill="#E8F5E9" transform="translate(32 128)" d="M0 0L32 0L32 32L0 32L0 0Z" fill-rule="evenodd"/>
	<path fill="#E8F5E9" transform="translate(64 128)" d="M0 0L32 0L32 32L0 32L0 0Z" fill-rule="evenodd"/>
	<path fill="#E8F5E9" transform="translate(96 128)" d="M0 0L32 0L32 32L0 32L0 0Z" fill-rule="evenodd"/>
	<path fill="#E8F5E9" transform="translate(128 128)" d="M0 0L32 0L32 32L0 32L0 0Z" fill-rule="evenodd"/>
	<path fill="#90CAF9" transform="matrix(6.12323e-17 -1 1 6.12323e-17 128 160)" d="M14 4L28 18L28 32L0 32L0 4L14 4Z" fill-rule="evenodd"/>
	<path fill="#E8F5E9" transform="translate(160 128)" d="M0 0L32 0L32 32L0 32L0 0Z" fill-rule="evenodd"/>
	<path fill="#90CAF9" transform="matrix(1 0 0 0.875 160 132)" d="M0 0L32 0L32 32L0 32L0 0Z" fill-rule="evenodd"/>
	<path fill="#E8F5E9" transform="translate(192 128)" d="M0 0L32 0L32 32L0 32L0 0Z" fill-rule="evenodd"/>
	<path fill="#90CAF9" transform="translate(192 128)" d="M14 4L28 18L28 32L0 32L0 4L14 4Z" fill-rule="evenodd"/>
	<path fill="#E8F5E9" transform="translate(224 128)" d="M0 0L32 0L32 32L0 32L0 0Z" fill-rule="evenodd"/>
	<path fill="#E8F5E9" transform="translate(256 128)" d="M0 0L32 0L32 32L0 32L0 0Z" fill-rule="evenodd"/>
	<path fill="#E8F5E9" transform="translate(288 128)" d="M0 0L32 0L32 32L0 32L0 0Z" fill-rule="evenodd"/>
	<path fill="#E8F5E9" transform="translate(0 160)" d="M0 0L32 0L32 32L0 32L0 0Z" fill-rule="evenodd"/>
	<path fill="#E8F5E9" transform="translate(32 160)" d="M0 0L32 0L32 32L0 32L0 0Z" fill-rule="evenodd"/>
	<path fill="#E8F5E9" transform="translate(64 160)" d="M0 0L32 0L32 32L0 32L0 0Z" fill-rule="evenodd"/>
	<path fill="#E8F5E9" transform="translate(96 160)" d="M0 0L32 0L32 32L0 32L0 0Z" fill-rule="evenodd"/>
	<path fill="#E8F5E9" transform="translate(128 160)" d="M0 0L32 0L32 32L0 32L0 0Z" fill-rule="evenodd"/>
	<path fill="#90CAF9" transform="matrix(-1 -1.22465e-16 1.22465e-16 -1 160 192)" d="M14 4L28 18L28 32L0 32L0 4L14 4Z" fill-rule="evenodd"/>
	<path fill="#E8F5E9" transform="translate(160 160)" d="M0 0L32 0L32 32L0 32L0 0Z" fill-rule="evenodd"/>
	<path fill="#90CAF9" transform="translate(160 160)" d="M0 0L32 0L32 32L0 32L0 0Z" fill-rule="evenodd"/>
	<path fill="#90CAF9" transform="matrix(6.12323e-17 -1 1 6.12323e-17 160 192)" d="M4 0L4 22L10 28L32 28L32 4L30 4L28 2L28 0L4 0Z" fill-rule="evenodd"/>
	<path fill="#90CAF9" transform="translate(160 160)" d="M4 0L4 22L10 28L32 28L32 4L30 4L28 2L28 0L4 0Z" fill-rule="evenodd"/>
	<path fill="#E8F5E9" transform="translate(192 160)" d="M0 0L32 0L32 32L0 32L0 0Z" fill-rule="evenodd"/>
	<path fill="#90CAF9" transform="matrix(6.12323e-17 1 -1 6.12323e-17 224 160)" d="M14 4L28 18L28 32L0 32L0 4L14 4Z" fill-rule="evenodd"/>
	<path fill="#E8F5E9" transform="translate(224 160)" d="M0 0L32 0L32 32L0 32L0 0Z" fill-rule="evenodd"/>
	<path fill="#E8F5E9" transform="translate(256 160)" d="M0 0L32 0L32 32L0 32L0 0Z" fill-rule="evenodd"/>
	<path fill="#E8F5E9" transform="translate(288 160)" d="M0 0L32 0L32 32L0 32L0 0Z" fill-rule="evenodd"/>
	<path fill="#E8F5E9" transform="translate(0 192)" d="M0 0L32 0L32 32L0 32L0 0Z" fill-rule="evenodd"/>
	<path fill="#E8F5E9" transform="translate(32 192)" d="M0 0L32 0L32 32L0 32L0 0Z" fill-rule="evenodd"/>
	<path fill="#E8F5E9" transform="translate(64 192)" d="M0 0L32 0L32 32L0 32L0 0Z" fill-rule="evenodd"/>
	<path fill="#E8F5E9" transform="translate(96 192)" d="M0 0L32 0L32 32L0 32L0 0Z" fill-rule="evenodd"/>
	<path fill="#E8F5E9" transform="translate(128 192)" d="M0 0L32 0L32 32L0 32L0 0Z" fill-rule="evenodd"/>
	<path fill="#E8F5E9" transform="translate(160 192)" d="M0 0L32 0L32 32L0 32L0 0Z" fill-rule="evenodd"/>
	<path fill="#90CAF9" transform="translate(160 192)" d="M4 -0L4 22L10 28L22 28L28 22L28 0L4 -0Z" fill-rule="evenodd"/>
	<path fill="#E8F5E9" transform="translate(192 192)" d="M0 0L32 0L32 32L0 32L0 0Z" fill-rule="evenodd"/>
	<path fill="#E8F5E9" transform="translate(224 192)" d="M0 0L32 0L32 32L0 32L0 0Z" fill-rule="evenodd"/>
	<path fill="#E8F5E9" transform="translate(256 192)" d="M0 0L32 0L32 32L0 32L0 0Z" fill-rule="evenodd"/>
	<path fill="#E8F5E9" transform="translate(288 192)" d="M0 0L32 0L32 32L0 32L0 0Z" fill-rule="evenodd"/>
	<path fill="#E8F5E9" transform="translate(0 224)" d="M0 0L32 0L32 32L0 32L0 0Z" fill-rule="evenodd"/>
	<path fill="#E8F5E9" transform="translate(32 224)" d="M0 0L32 0L32 32L0 32L0 0Z" fill-rule="evenodd"/>
	<path fill="#E8F5E9" transform="translate(64 224)" d="M0 0L32 0L32 32L0 32L0 0Z" fill-rule="evenodd"/>
	<path fill="#E8F5E9" transform="translate(96 224)" d="M0 0L32 0L32 32L0 32L0 0Z" fill-rule="evenodd"/>
	<path fill="#E8F5E9" transform="translate(128 224)" d="M0 0L32 0L32 32L0 32L0 0Z" fill-rule="evenodd"/>
	<path fill="#E8F5E9" transform="translate(160 224)" d="M0 0L32 0L32 32L0 32L0 0Z" fill-rule="evenodd"/>
	<path fill="#E8F5E9" transform="translate(192 224)" d="M0 0L32 0L32 32L0 32L0 0Z" fill-rule="evenodd"/>
	<path fill="#E8F5E9" transform="translate(224 224)" d="M0 0L32 0L32 32L0 32L0 0Z" fill-rule="evenodd"/>
	<path fill="#E8F5E9" transform="translate(256 224)" d="M0 0L32 0L32 32L0 32L0 0Z" fill-rule="evenodd"/>
	<path fill="#E8F5E9" transform="translate(288 224)" d="M0 0L32 0L32 32L0 32L0 0Z" fill-rule="evenodd"/>
</svg>
