<?xml version="1.0" encoding="utf-8" ?>
<svg xmlns="http://www.w3.org/2000/svg" xmlns:xlink="http://www.w3.org/1999/xlink" width="320" height="256">
	<path fill="#E8F5E9" d="M0 0L32 0L32 32L0 32L0 0Z" fill-rule="evenodd"/>
	<path fill="#E8F5E9" transform="translate(32 0)" d="M0 0L32 0L32 32L0 32L0 0Z" fill-rule="evenodd"/>
	<path fill="#E8F5E9" transform="translate(64 0)" d="M0 0L32 0L32 32L0 32L0 0Z" fill-rule="evenodd"/>
	<path fill="#E8F5E9" transform="translate(96 0)" d="M0 0L32 0L32 32L0 32L0 0Z" fill-rule="evenodd"/>
	<path fill="#E8F5E9" transform="translate(128 0)" d="M0 0L32 0L32 32L0 32L0 0Z" fill-rule="evenodd"/>
	<path fill="#E8F5E9" transform="translate(160 0)" d="M0 0L32 0L32 32L0 32L0 0Z" fill-rule="evenodd"/>
	<path fill="#E8F5E9" transform="translate(192 0)" d="M0 0L32 0L32 32L0 32L0 0Z" fill-rule="evenodd"/>
	<path fill="#E8F5E9" transform="translate(224 0)" d="M0 0L32 0L32 32L0 32L0 0Z" fill-rule="evenodd"/>
	<path fill="#E8F5E9" transform="translate(256 0)" d="M0 0L32 0L32 32L0 32L0 0Z" fill-rule="evenodd"/>
	<path fill="#E8F5E9" transform="translate(288 0)" d="M0 0L32 0L32 32L0 32L0 0Z" fill-rule="evenodd"/>
	<path fill="#E8F5E9" transform="translate(0 32)" d="M0 0L32 0L32 32L0 32L0 0Z" fill-rule="evenodd"/>
	<path fill="#E8F5E9" transform="translate(32 32)" d="M0 0L32 0L32 32L0 32L0 0Z" fill-rule="evenodd"/>
	<path fill="#E8F5E9" transform="translate(64 32)" d="M0 0L32 0L32 32L0 32L0 0Z" fill-rule="evenodd"/>
	<path fill="#E8F5E9" transform="translate(96 32)" d="M0 0L32 0L32 32L0 32L0 0Z" fill-rule="evenodd"/>
	<path fill="#E8F5E9" transform="translate(128 32)" d="M0 0L32 0L32 32L0 32L0 0Z" fill-rule="evenodd"/>
	<path fill="#E8F5E9" transform="translate(160 32)" d="M0 0L32 0L32 32L0 32L0 0Z" fill-rule="evenodd"/>
	<path fill="white" transform="translate(160 32)" d="M8 8L24 8L24 24L8 24L8 8Z" fill-rule="evenodd"/>
	<path fill="none" stroke="black" stroke-width="1" stroke-linecap="round" stroke-linejoin="round" transform="translate(160 32)" d="M8 8L24 8L24 24L8 24L8 8Z" fill-rule="evenodd"/>
	<path fill="#E8F5E9" transform="translate(192 32)" d="M0 0L32 0L32 32L0 32L0 0Z" fill-rule="evenodd"/>
	<path fill="#E8F5E9" transform="translate(224 32)" d="M0 0L32 0L32 32L0 32L0 0Z" fill-rule="evenodd"/>
	<path fill="#E8F5E9" transform="translate(256 32)" d="M0 0L32 0L32 32L0 32L0 0Z" fill-rule="evenodd"/>
	<path fill="#E8F5E9" transform="translate(288 32)" d="M0 0L32 0L32 32L0 32L0 0Z" fill-rule="evenodd"/>
	<path fill="#E8F5E9" transform="translate(0 64)" d="M0 0L32 0L32 32L0 32L0 0Z" fill-rule="evenodd"/>
	<path fill="#E8F5E9" transform="translate(32 64)" d="M0 0L32 0L32 32L0 32L0 0Z" fill-rule="evenodd"/>
	<path fill="#E8F5E9" transform="translate(64 64)" d="M0 0L32 0L32 32L0 32L0 0Z" fill-rule="evenodd"/>
	<path fill="#E8F5E9" transform="translate(96 64)" d="M0 0L32 0L32 32L0 32L0 0Z" fill-rule="evenodd"/>
	<path fill="#E8F5E9" transform="translate(128 64)" d="M0 0L32 0L32 32L0 32L0 0Z" fill-rule="evenodd"/>
	<path fill="#E8F5E9" transform="translate(160 64)" d="M0 0L32 0L32 32L0 32L0 0Z" fill-rule="evenodd"/>
	<path fill="#E8F5E9" transform="translate(192 64)" d="M0 0L32 0L32 32L0 32L0 0Z" fill-rule="evenodd"/>
	<path fill="#E8F5E9" transform="translate(224 64)" d="M0 0L32 0L32 32L0 32L0 0Z" fill-rule="evenodd"/>
	<path fill="#E8F5E9" transform="translate(256 64)" d="M0 0L32 0L32 32L0 32L0 0Z" fill-rule="evenodd"/>
	<path fill="#E8F5E9" transform="translate(288 64)" d="M0 0L32 0L32 32L0 32L0 0Z" fill-rule="evenodd"/>
	<path fill="#E8F5E9" transform="translate(0 96)" d="M0 0L32 0L32 32L0 32L0 0Z" fill-rule="evenodd"/>
	<path fill="#E8F5E9" transform="translate(32 96)" d="M0 0L32 0L32 32L0 32L0 0Z" fill-rule="evenodd"/>
	<path fill="#E8F5E9" transform="translate(64 96)" d="M0 0L32 0L32 32L0 32L0 0Z" fill-rule="evenodd"/>
	<path fill="white" transform="translate(56 88)" d="M32 24Q32 24.1964 31.9904 24.3925Q31.9807 24.5887 31.9615 24.7841Q31.9422 24.9796 31.9134 25.1738Q31.8846 25.3681 31.8463 25.5607Q31.808 25.7533 31.7602 25.9438Q31.7125 26.1343 31.6555 26.3223Q31.5985 26.5102 31.5324 26.6951Q31.4662 26.88 31.391 27.0615Q31.3159 27.2429 31.2319 27.4204Q31.1479 27.598 31.0554 27.7712Q30.9628 27.9444 30.8618 28.1128Q30.7609 28.2813 30.6518 28.4446Q30.5426 28.6079 30.4257 28.7656Q30.3087 28.9233 30.1841 29.0751Q30.0595 29.227 29.9276 29.3725Q29.7957 29.518 29.6569 29.6569Q29.518 29.7957 29.3725 29.9276Q29.227 30.0595 29.0751 30.1841Q28.9233 30.3087 28.7656 30.4257Q28.6079 30.5426 28.4446 30.6518Q28.2813 30.7609 28.1128 30.8618Q27.9444 30.9628 27.7712 31.0554Q27.598 31.1479 27.4204 31.2319Q27.2429 31.3159 27.0615 31.391Q26.88 31.4662 26.6951 31.5324Q26.5102 31.5985 26.3223 31.6555Q26.1343 31.7125 25.9438 31.7602Q25.7533 31.808 25.5607 31.8463Q25.3681 31.8846 25.1738 31.9134Q24.9796 31.9422 24.7841 31.9615Q24.5887 31.9807 24.3925 31.9904Q24.1964 32 24 32Q23.8036 32 23.6075 31.9904Q23.4113 31.9807 23.2159 31.9615Q23.0204 31.9422 22.8262 31.9134Q22.6319 31.8846 22.4393 31.8463Q22.2467 31.808 22.0562 31.7602Q21.8657 31.7125 21.6777 31.6555Q21.4898 31.5985 21.3049 31.5324Q21.12 31.4662 20.9385 31.391Q20.7571 31.3159 20.5796 31.2319Q20.402 31.1479 20.2288 31.0554Q20.0556 30.9628 19.8872 30.8618Q19.7187 30.7609 19.5554 30.6518Q19.3921 30.5426 19.2344 30.4257Q19.0767 30.3087 18.9249 30.1841Q18.773 30.0595 18.6275 29.9276Q18.482 29.7957 18.3431 29.6569Q18.2043 29.518 18.0724 29.3725Q17.9405 29.227 17.8159 29.0751Q17.6913 28.9233 17.5743 28.7656Q17.4573 28.6079 17.3482 28.4446Q17.2391 28.2813 17.1382 28.1128Q17.0372 27.9444 16.9446 27.7712Q16.8521 27.598 16.7681 27.4204Q16.6841 27.2429 16.609 27.0615Q16.5338 26.88 16.4676 26.6951Q16.4015 26.5102 16.3445 26.3223Q16.2875 26.1343 16.2397 25.9438Q16.192 25.7533 16.1537 25.5607Q16.1154 25.3681 16.0866 25.1738Q16.0578 24.9796 16.0385 24.7841Q16.0193 24.5887 16.0096 24.3925Q16 24.1964 16 24Q16 23.8036 16.0096 23.6075Q16.0193 23.4113 16.0385 23.2159Q16.0578 23.0204 16.0866 22.8262Q16.1154 22.6319 16.1537 22.4393Q16.192 22.2467 16.2397 22.0562Q16.2875 21.8657 16.3445 21.6777Q16.4015 21.4898 16.4676 21.3049Q16.5338 21.12 16.609 20.9385Q16.6841 20.7571 16.7681 20.5796Q16.8521 20.402 16.9446 20.2288Q17.0372 20.0556 17.1382 19.8872Q17.2391 19.7187 17.3482 19.5554Q17.4573 19.3921 17.5743 19.2344Q17.6913 19.0767 17.8159 18.9249Q17.9405 18.773 18.0724 18.6275Q18.2043 18.482 18.3431 18.3431Q18.482 18.2043 18.6275 18.0724Q18.773 17.9405 18.9249 17.8159Q19.0767 17.6913 19.2344 17.5743Q19.3921 17.4573 19.5554 17.3482Q19.7187 17.2391 19.8872 17.1382Q20.0556 17.0372 20.2288 16.9446Q20.402 16.8521 20.5796 16.7681Q20.7571 16.6841 20.9385 16.609Q21.12 16.5338 21.3049 16.4676Q21.4898 16.4015 21.6777 16.3445Q21.8657 16.2875 22.0562 16.2397Q22.2467 16.192 22.4393 16.1537Q22.6319 16.1154 22.8262 16.0866Q23.0204 16.0578 23.2159 16.0385Q23.4113 16.0193 23.6075 16.0096Q23.8036 16 24 16Q24.1964 16 24.3925 16.0096Q24.5887 16.0193 24.7841 16.0385Q24.9796 16.0578 25.1738 16.0866Q25.3681 16.1154 25.5607 16.1537Q25.7533 16.192 25.9438 16.2397Q26.1343 16.2875 26.3223 16.3445Q26.5102 16.4015 26.6951 16.4676Q26.88 16.5338 27.0615 16.609Q27.2429 16.6841 27.4204 16.7681Q27.598 16.8521 27.7712 16.9446Q27.9444 17.0372 28.1128 17.1382Q28.2813 17.2391 28.4446 17.3482Q28.6079 17.4573 28.7656 17.5743Q28.9233 17.6913 29.0751 17.8159Q29.227 17.9405 29.3725 18.0724Q29.518 18.2043 29.6569 18.3431Q29.7957 18.482 29.9276 18.6275Q30.0595 18.773 30.1841 18.9249Q30.3087 19.0767 30.4257 19.2344Q30.5426 19.3921 30.6518 19.5554Q30.7609 19.7187 30.8618 19.8872Q30.9628 20.0556 31.0554 20.2288Q31.1479 20.402 31.2319 20.5796Q31.3159 20.7571 31.391 20.9385Q31.4662 21.12 31.5324 21.3049Q31.5985 21.4898 31.6555 21.6777Q31.7125 21.8657 31.7602 22.0562Q31.808 22.2467 31.8463 22.4393Q31.8846 22.6319 31.9134 22.8262Q31.9422 23.0204 31.9615 23.2159Q31.9807 23.4113 31.9904 23.6075Q32 23.8036 32 24Z" fill-rule="evenodd"/>
	<path fill="none" stroke="black" stroke-width="1" stroke-linecap="round" stroke-linejoin="round" transform="translate(56 88)" d="M32 24Q32 24.1964 31.9904 24.3925Q31.9807 24.5887 31.9615 24.7841Q31.9422 24.9796 31.9134 25.1738Q31.8846 25.3681 31.8463 25.5607Q31.808 25.7533 31.7602 25.9438Q31.7125 26.1343 31.6555 26.3223Q31.5985 26.5102 31.5324 26.6951Q31.4662 26.88 31.391 27.0615Q31.3159 27.2429 31.2319 27.4204Q31.1479 27.598 31.0554 27.7712Q30.9628 27.9444 30.8618 28.1128Q30.7609 28.2813 30.6518 28.4446Q30.5426 28.6079 30.4257 28.7656Q30.3087 28.9233 30.1841 29.0751Q30.0595 29.227 29.9276 29.3725Q29.7957 29.518 29.6569 29.6569Q29.518 29.7957 29.3725 29.9276Q29.227 30.0595 29.0751 30.1841Q28.9233 30.3087 28.7656 30.4257Q28.6079 30.5426 28.4446 30.6518Q28.2813 30.7609 28.1128 30.8618Q27.9444 30.9628 27.7712 31.0554Q27.598 31.1479 27.4204 31.2319Q27.2429 31.3159 27.0615 31.391Q26.88 31.4662 26.6951 31.5324Q26.5102 31.5985 26.3223 31.6555Q26.1343 31.7125 25.9438 31.7602Q25.7533 31.808 25.5607 31.8463Q25.3681 31.8846 25.1738 31.9134Q24.9796 31.9422 24.7841 31.9615Q24.5887 31.9807 24.3925 31.9904Q24.1964 32 24 32Q23.8036 32 23.6075 31.9904Q23.4113 31.9807 23.2159 31.9615Q23.0204 31.9422 22.8262 31.9134Q22.6319 31.8846 22.4393 31.8463Q22.2467 31.808 22.0562 31.7602Q21.8657 31.7125 21.6777 31.6555Q21.4898 31.5985 21.3049 31.5324Q21.12 31.4662 20.9385 31.391Q20.7571 31.3159 20.5796 31.2319Q20.402 31.1479 20.2288 31.0554Q20.0556 30.9628 19.8872 30.8618Q19.7187 30.7609 19.5554 30.6518Q19.3921 30.5426 19.2344 30.4257Q19.0767 30.3087 18.9249 30.1841Q18.773 30.0595 18.6275 29.9276Q18.482 29.7957 18.3431 29.6569Q18.2043 29.518 18.0724 29.3725Q17.9405 29.227 17.8159 29.0751Q17.6913 28.9233 17.5743 28.7656Q17.4573 28.6079 17.3482 28.4446Q17.2391 28.2813 17.1382 28.1128Q17.0372 27.9444 16.9446 27.7712Q16.8521 27.598 16.7681 27.4204Q16.6841 27.2429 16.609 27.0615Q16.5338 26.88 16.4676 26.6951Q16.4015 26.5102 16.3445 26.3223Q16.2875 26.1343 16.2397 25.9438Q16.192 25.7533 16.1537 25.5607Q16.1154 25.3681 16.0866 25.1738Q16.0578 24.9796 16.0385 24.7841Q16.0193 24.5887 16.0096 24.3925Q16 24.1964 16 24Q16 23.8036 16.0096 23.6075Q16.0193 23.4113 16.0385 23.2159Q16.0578 23.0204 16.0866 22.8262Q16.1154 22.6319 16.1537 22.4393Q16.192 22.2467 16.2397 22.0562Q16.2875 21.8657 16.3445 21.6777Q16.4015 21.4898 16.4676 21.3049Q16.5338 21.12 16.609 20.9385Q16.6841 20.7571 16.7681 20.5796Q16.8521 20.402 16.9446 20.2288Q17.0372 20.0556 17.1382 19.8872Q17.2391 19.7187 17.3482 19.5554Q17.4573 19.3921 17.5743 19.2344Q17.6913 19.0767 17.8159 18.9249Q17.9405 18.773 18.0724 18.6275Q18.2043 18.482 18.3431 18.3431Q18.482 18.2043 18.6275 18.0724Q18.773 17.9405 18.9249 17.8159Q19.0767 17.6913 19.2344 17.5743Q19.3921 17.4573 19.5554 17.3482Q19.7187 17.2391 19.8872 17.1382Q20.0556 17.0372 20.2288 16.9446Q20.402 16.8521 20.5796 16.7681Q20.7571 16.6841 20.9385 16.609Q21.12 16.5338 21.3049 16.4676Q21.4898 16.4015 21.6777 16.3445Q21.8657 16.2875 22.0562 16.2397Q22.2467 16.192 22.4393 16.1537Q22.6319 16.1154 22.8262 16.0866Q23.0204 16.0578 23.2159 16.0385Q23.4113 16.0193 23.6075 16.0096Q23.8036 16 24 16Q24.1964 16 24.3925 16.0096Q24.5887 16.0193 24.7841 16.0385Q24.9796 16.0578 25.1738 16.0866Q25.3681 16.1154 25.5607 16.1537Q25.7533 16.192 25.9438 16.2397Q26.1343 16.2875 26.3223 16.3445Q26.5102 16.4015 26.6951 16.4676Q26.88 16.5338 27.0615 16.609Q27.2429 16.6841 27.4204 16.7681Q27.598 16.8521 27.7712 16.9446Q27.9444 17.0372 28.1128 17.1382Q28.2813 17.2391 28.4446 17.3482Q28.6079 17.4573 28.7656 17.5743Q28.9233 17.6913 29.0751 17.8159Q29.227 17.9405 29.3725 18.0724Q29.518 18.2043 29.6569 18.3431Q29.7957 18.482 29.9276 18.6275Q30.0595 18.773 30.1841 18.9249Q30.3087 19.0767 30.4257 19.2344Q30.5426 19.3921 30.6518 19.5554Q30.7609 19.7187 30.8618 19.8872Q30.9628 20.0556 31.0554 20.2288Q31.1479 20.402 31.2319 20.5796Q31.3159 20.7571 31.391 20.9385Q31.4662 21.12 31.5324 21.3049Q31.5985 21.4898 31.6555 21.6777Q31.7125 21.8657 31.7602 22.0562Q31.808 22.2467 31.8463 22.4393Q31.8846 22.6319 31.9134 22.8262Q31.9422 23.0204 31.9615 23.2159Q31.9807 23.4113 31.9904 23.6075Q32 23.8036 32 24Z" fill-rule="evenodd"/>
	<path fill="#E8F5E9" transform="translate(96 96)" d="M0 0L32 0L32 32L0 32L0 0Z" fill-rule="evenodd"/>
	<path fill="#E8F5E9" transform="translate(128 96)" d="M0 0L32 0L32 32L0 32L0 0Z" fill-rule="evenodd"/>
	<path fill="#E8F5E9" transform="translate(160 96)" d="M0 0L32 0L32 32L0 32L0 0Z" fill-rule="evenodd"/>
	<path fill="#E8F5E9" transform="translate(192 96)" d="M0 0L32 0L32 32L0 32L0 0Z" fill-rule="evenodd"/>
	<path fill="#E8F5E9" transform="translate(224 96)" d="M0 0L32 0L32 32L0 32L0 0Z" fill-rule="evenodd"/>
	<path fill="#E8F5E9" transform="translate(256 96)" d="M0 0L32 0L32 32L0 32L0 0Z" fill-rule="evenodd"/>
	<path fill="#E8F5E9" transform="translate(288 96)" d="M0 0L32 0L32 32L0 32L0 0Z" fill-rule="evenodd"/>
	<path fill="#E8F5E9" transform="translate(0 128)" d="M0 0L32 0L32 32L0 32L0 0Z" fill-rule="evenodd"/>
	<path fill="#E8F5E9" transform="translate(32 128)" d="M0 0L32 0L32 32L0 32L0 0Z" fill-rule="evenodd"/>
	<path fill="#E8F5E9" transform="translate(64 128)" d="M0 0L32 0L32 32L0 32L0 0Z" fill-rule="evenodd"/>
	<path fill="#E8F5E9" transform="translate(96 128)" d="M0 0L32 0L32 32L0 32L0 0Z" fill-rule="evenodd"/>
	<path fill="#E8F5E9" transform="translate(128 128)" d="M0 0L32 0L32 32L0 32L0 0Z" fill-rule="evenodd"/>
	<path fill="#90CAF9" transform="matrix(6.12323e-17 -1 1 6.12323e-17 128 160)" d="M14 4L28 18L28 32L0 32L0 4L14 4Z" fill-rule="evenodd"/>
	<path fill="#E8F5E9" transform="translate(160 128)" d="M0 0L32 0L32 32L0 32L0 0Z" fill-rule="evenodd"/>
	<path fill="#90CAF9" transform="matrix(1 0 0 0.875 160 132)" d="M0 0L32 0L32 32L0 32L0 0Z" fill-rule="evenodd"/>
	<path fill="#E8F5E9" transform="translate(192 128)" d="M0 0L32 0L32 32L0 32L0 0Z" fill-rule="evenodd"/>
	<path fill="#90CAF9" transform="translate(192 128)" d="M14 4L28 18L28 32L0 32L0 4L14 4Z" fill-rule="evenodd"/>
	<path fill="#E8F5E9" transform="translate(224 128)" d="M0 0L32 0L32 32L0 32L0 0Z" fill-rule="evenodd"/>
	<path fill="#E8F5E9" transform="translate(256 128)" d="M0 0L32 0L32 32L0 32L0 0Z" fill-rule="evenodd"/>
	<path fill="#E8F5E9" transform="translate(288 128)" d="M0 0L32 0L32 32L0 32L0 0Z" fill-rule="evenodd"/>
	<path fill="#E8F5E9" transform="translate(0 160)" d="M0 0L32 0L32 32L0 32L0 0Z" fill-rule="evenodd"/>
	<path fill="#E8F5E9" transform="translate(32 160)" d="M0 0L32 0L32 32L0 32L0 0Z" fill-rule="evenodd"/>
	<path fill="#E8F5E9" transform="translate(64 160)" d="M0 0L32 0L32 32L0 32L0 0Z" fill-rule="evenodd"/>
	<path fill="#E8F5E9" transform="translate(96 160)" d="M0 0L32 0L32 32L0 32L0 0Z" fill-rule="evenodd"/>
	<path fill="#E8F5E9" transform="translate(128 160)" d="M0 0L32 0L32 32L0 32L0 0Z" fill-rule="evenodd"/>
	<path fill="#90CAF9" transform="matrix(-1 -1.22465e-16 1.22465e-16 -1 160 192)" d="M14 4L28 18L28 32L0 32L0 4L14 4Z" fill-rule="evenodd"/>
	<path fill="#E8F5E9" transform="translate(160 160)" d="M0 0L32 0L32 32L0 32L0 0Z" fill-rule="evenodd"/>
	<path fill="#90CAF9" transform="translate(160 160)" d="M0 0L32 0L32 32L0 32L0 0Z" fill-rule="evenodd"/>
	<path fill="#90CAF9" transform="matrix(6.12323e-17 -1 1 6.12323e-17 160 192)" d="M4 0L4 22L10 28L32 28L32 4L30 4L28 2L28 0L4 0Z" fill-rule="evenodd"/>
	<path fill="#90CAF9" transform="translate(160 160)" d="M4 0L4 22L10 28L32 28L32 4L30 4L28 2L28 0L4 0Z" fill-rule="evenodd"/>
	<path fill="#E8F5E9" transform="translate(192 160)" d="M0 0L32 0L32 32L0 32L0 0Z" fill-rule="evenodd"/>
	<path fill="#90CAF9" transform="matrix(6.12323e-17 1 -1 6.12323e-17 224 160)" d="M14 4L28 18L28 32L0 32L0 4L14 4Z" fill-rule="evenodd"/>
	<path fill="#E8F5E9" transform="translate(224 160)" d="M0 0L32 0L32 32L0 32L0 0Z" fill-rule="evenodd"/>
	<path fill="#E8F5E9" transform="translate(256 160)" d="M0 0L32 0L32 32L0 32L0 0Z" fill-rule="evenodd"/>
	<path fill="white" transform="matrix(1.03931 0 0 1.02479 255.057 159.405)" d="M16.303 8.387L24 24L8.605 24L16.303 8.387Z" fill-rule="evenodd"/>
	<path fill="none" stroke="black" stroke-width="0.97000003" stroke-linecap="round" stroke-linejoin="round" transform="matrix(1.03931 0 0 1.02479 255.057 159.405)" d="M16.303 8.387L24 24L8.605 24L16.303 8.387Z" fill-rule="evenodd"/>
	<path fill="#E8F5E9" transform="translate(288 160)" d="M0 0L32 0L32 32L0 32L0 0Z" fill-rule="evenodd"/>
	<path fill="#E8F5E9" transform="translate(0 192)" d="M0 0L32 0L32 32L0 32L0 0Z" fill-rule="evenodd"/>
	<path fill="#E8F5E9" transform="translate(32 192)" d="M0 0L32 0L32 32L0 32L0 0Z" fill-rule="evenodd"/>
	<path fill="#E8F5E9" transform="translate(64 192)" d="M0 0L32 0L32 32L0 32L0 0Z" fill-rule="evenodd"/>
	<path fill="#E8F5E9" transform="translate(96 192)" d="M0 0L32 0L32 32L0 32L0 0Z" fill-rule="evenodd"/>
	<path fill="#E8F5E9" transform="translate(128 192)" d="M0 0L32 0L32 32L0 32L0 0Z" fill-rule="evenodd"/>
	<path fill="#E8F5E9" transform="translate(160 192)" d="M0 0L32 0L32 32L0 32L0 0Z" fill-rule="evenodd"/>
	<path fill="#90CAF9" transform="translate(160 192)" d="M4 -0L4 22L10 28L22 28L28 22L28 0L4 -0Z" fill-rule="evenodd"/>
	<path fill="#E8F5E9" transform="translate(192 192)" d="M0 0L32 0L32 32L0 32L0 0Z" fill-rule="evenodd"/>
	<path fill="#E8F5E9" transform="translate(224 192)" d="M0 0L32 0L32 32L0 32L0 0Z" fill-rule="evenodd"/>
	<path fill="#E8F5E9" transform="translate(256 192)" d="M0 0L32 0L32 32L0 32L0 0Z" fill-rule="evenodd"/>
	<path fill="#E8F5E9" transform="translate(288 192)" d="M0 0L32 0L32 32L0 32L0 0Z" fill-rule="evenodd"/>
	<path fill="#E8F5E9" transform="translate(0 224)" d="M0 0L32 0L32 32L0 32L0 0Z" fill-rule="evenodd"/>
	<path fill="#E8F5E9" transform="translate(32 224)" d="M0 0L32 0L32 32L0 32L0 0Z" fill-rule="evenodd"/>
	<path fill="white" transform="matrix(1.04889 0 0 1.05132 30.8266 222.768)" d="M16.373 8.781L24 16.391L16.373 24L8.746 16.391L16.373 8.781Z" fill-rule="evenodd"/>
	<path fill="none" stroke="black" stroke-width="0.94999999" stroke-linecap="round" stroke-linejoin="round" transform="matrix(1.04889 0 0 1.05132 30.8266 222.768)" d="M16.373 8.781L24 16.391L16.373 24L8.746 16.391L16.373 8.781Z" fill-rule="evenodd"/>
	<path fill="#E8F5E9" transform="translate(64 224)" d="M0 0L32 0L32 32L0 32L0 0Z" fill-rule="evenodd"/>
	<path fill="#E8F5E9" transform="translate(96 224)" d="M0 0L32 0L32 32L0 32L0 0Z" fill-rule="evenodd"/>
	<path fill="#E8F5E9" transform="translate(128 224)" d="M0 0L32 0L32 32L0 32L0 0Z" fill-rule="evenodd"/>
	<path fill="#E8F5E9" transform="translate(160 224)" d="M0 0L32 0L32 32L0 32L0 0Z" fill-rule="evenodd"/>
	<path fill="#E8F5E9" transform="translate(192 224)" d="M0 0L32 0L32 32L0 32L0 0Z" fill-rule="evenodd"/>
	<path fill="#E8F5E9" transform="translate(224 224)" d="M0 0L32 0L32 32L0 32L0 0Z" fill-rule="evenodd"/>
	<path fill="#E8F5E9" transform="translate(256 224)" d="M0 0L32 0L32 32L0 32L0 0Z" fill-rule="evenodd"/>
	<path fill="#E8F5E9" transform="translate(288 224)" d="M0 0L32 0L32 32L0 32L0 0Z" fill-rule="evenodd"/>
</svg>
